<?xml version="1.0" encoding="UTF-8"?>
<!DOCTYPE svg PUBLIC "-//W3C//DTD SVG 1.1//EN" "http://www.w3.org/Graphics/SVG/1.1/DTD/svg11.dtd">
<!-- Creator: CorelDRAW 2021 (64-Bit) -->
<svg xmlns="http://www.w3.org/2000/svg" xml:space="preserve" width="60mm" height="40mm" version="1.1" style="shape-rendering:geometricPrecision; text-rendering:geometricPrecision; image-rendering:optimizeQuality; fill-rule:evenodd; clip-rule:evenodd"
viewBox="0 0 5988.68 3992.45"
 xmlns:xlink="http://www.w3.org/1999/xlink"
 xmlns:xodm="http://www.corel.com/coreldraw/odm/2003">
 <defs>
  <style type="text/css">
   <![CDATA[
    .fil0 {fill:#004A47;fill-rule:nonzero}
    .fil3 {fill:white;fill-rule:nonzero}
    .fil1 {fill:url(#id0)}
    .fil2 {fill:url(#id1)}
   ]]>
  </style>
  <linearGradient id="id0" gradientUnits="userSpaceOnUse" x1="2998.75" y1="2580.64" x2="2998.75" y2="661.05">
   <stop offset="0" style="stop-opacity:1; stop-color:#ABFF8A"/>
   <stop offset="1" style="stop-opacity:1; stop-color:#1EFFBC"/>
  </linearGradient>
  <linearGradient id="id1" gradientUnits="userSpaceOnUse" xlink:href="#id0" x1="2999.82" y1="2552.57" x2="2999.82" y2="679.74">
  </linearGradient>
 </defs>
 <g id="Layer_x0020_1">
  <metadata id="CorelCorpID_0Corel-Layer"/>
  <rect class="fil0" width="5988.68" height="3992.45"/>
  <g id="_2813896804384">
   <path class="fil1" d="M2170.75 751.8l0 998.3c0,111.7 21.93,220.15 65.15,322.34 41.72,98.62 101.39,187.16 177.37,263.14 75.98,76 164.52,135.66 263.14,177.36 102.19,43.24 210.64,65.15 322.34,65.15 111.7,0 220.15,-21.91 322.34,-65.15 98.62,-41.7 187.18,-101.37 263.14,-177.36 75.99,-75.99 135.65,-164.52 177.36,-263.14 43.23,-102.19 65.16,-210.64 65.16,-322.34 0,-111.71 -21.93,-220.16 -65.16,-322.33 -41.71,-98.62 -101.38,-187.18 -177.36,-263.14 -75.97,-75.99 -164.52,-135.67 -263.14,-177.38 -102.19,-43.22 -210.64,-65.15 -322.34,-65.15 -97.98,0 -177.42,79.45 -177.42,177.42 0,97.99 79.44,177.44 177.42,177.44 126.38,0 245.21,49.22 334.56,138.59 89.37,89.35 138.58,208.17 138.58,334.55 0,126.38 -49.21,245.2 -138.58,334.56 -89.35,89.37 -208.18,138.58 -334.56,138.58 -126.38,0 -245.2,-49.21 -334.56,-138.58 -89.37,-89.36 -138.58,-208.18 -138.58,-334.56l0 -998.3c0,-97.99 -79.45,-177.42 -177.43,-177.42 -97.98,0 -177.43,79.43 -177.43,177.42z"/>
   <path class="fil2" d="M2609.74 1749.45c0,215.44 174.65,390.09 390.09,390.09 215.44,0 390.09,-174.65 390.09,-390.09 0,-215.44 -174.65,-390.09 -390.09,-390.09 -215.44,0 -390.09,174.65 -390.09,390.09zm124.97 157.08c-9.2,-16.45 -8.77,-36.6 1.1,-52.67l241.09 -391.86c15.06,-24.49 47.13,-32.13 71.6,-17.06 24.48,15.05 32.12,47.11 17.06,71.61l-192.29 312.53 147.69 0 0 -68.74c0,-28.74 23.32,-52.04 52.06,-52.04 28.75,0 52.05,23.31 52.05,52.04l0 68.74 96.2 0c28.74,0 52.04,23.31 52.04,52.06 0,28.74 -23.31,52.05 -52.04,52.05l-96.2 0 0 77.17c0,28.75 -23.31,52.04 -52.05,52.04 -28.75,0 -52.06,-23.3 -52.06,-52.04l0 -77.17 -240.82 0c-18.84,0 -36.23,-10.21 -45.43,-26.67z"/>
   <path class="fil3" d="M656.3 3292.83c-10.12,20.91 -24.39,37.38 -42.8,49.34 -18.41,11.96 -40.03,17.95 -64.87,17.95 -21.65,0 -41.87,-4.83 -60.74,-14.49 -18.87,-9.66 -34.05,-23.46 -45.55,-41.4 -11.49,-17.97 -17.25,-39.59 -17.25,-64.89l0 -31.74c0,-26.21 5.63,-48.66 16.9,-67.29 11.27,-18.62 26.34,-32.87 45.2,-42.78 18.85,-9.88 39.35,-14.83 61.43,-14.83 24.38,0 45.77,5.62 64.17,16.91 18.42,11.25 32.79,27.25 43.14,47.96 10.35,20.7 15.52,44.88 15.52,72.44 0,27.63 -5.06,51.87 -15.16,72.83zm33.13 -212.56c-15.65,-17.26 -34.3,-30.84 -55.92,-40.71 -21.62,-9.92 -45.52,-14.87 -71.75,-14.87 -28.07,0 -53.74,6.13 -76.96,18.3 -23.23,12.2 -41.97,30.95 -56.24,56.24 -0.25,0.46 -0.44,1 -0.69,1.45l0 -198.81 -66.24 0 0 503.81 52.45 0 0 -78.62c1.8,4.08 2.76,8.85 4.83,12.71 13.79,25.53 32.55,44.98 56.26,58.33 23.68,13.32 50.69,19.99 81.07,19.99 27.15,0 51.87,-5.04 74.18,-15.17 22.32,-10.11 41.51,-24.03 57.64,-41.75 16.08,-17.7 28.4,-38.07 36.92,-61.06 8.5,-23.01 12.77,-47.63 12.77,-73.87l0 -12.42c0,-26.21 -4.14,-50.71 -12.44,-73.5 -8.26,-22.79 -20.25,-42.78 -35.86,-60.03z"/>
   <polygon class="fil3" points="1105.5,3048.85 1043.37,3048.85 1043.37,3233.8 846.7,3233.8 840.47,3221.37 1035.79,2926.02 989.54,2889.44 780.43,3204.83 780.43,3286.25 1043.37,3286.25 1043.37,3405.65 1105.5,3405.65 1105.5,3286.25 1172.43,3286.25 1172.43,3233.8 1105.5,3233.8 "/>
   <path class="fil3" d="M1521.36 3292.83c-10.12,20.91 -24.39,37.38 -42.8,49.34 -18.41,11.96 -40.03,17.95 -64.87,17.95 -21.62,0 -41.87,-4.83 -60.74,-14.49 -18.85,-9.66 -34.05,-23.46 -45.54,-41.4 -11.5,-17.97 -17.25,-39.59 -17.25,-64.89l0 -31.74c0,-26.21 5.62,-48.66 16.92,-67.29 11.24,-18.62 26.32,-32.87 45.2,-42.78 18.85,-9.88 39.33,-14.83 61.4,-14.83 24.38,0 45.77,5.62 64.19,16.91 18.4,11.25 32.77,27.25 43.12,47.96 10.35,20.7 15.55,44.88 15.55,72.44 0,27.63 -5.07,51.87 -15.19,72.83zm33.13 -212.56c-15.65,-17.26 -34.3,-30.84 -55.9,-40.71 -21.63,-9.92 -45.54,-14.87 -71.77,-14.87 -28.07,0 -53.74,6.13 -76.93,18.3 -23.26,12.2 -42,30.95 -56.25,56.24 -0.26,0.46 -0.43,1 -0.7,1.45l0 -198.81 -66.25 0 0 503.81 52.46 0 0 -78.62c1.8,4.08 2.75,8.85 4.82,12.71 13.79,25.53 32.56,44.98 56.25,58.33 23.69,13.32 50.72,19.99 81.08,19.99 27.15,0 51.87,-5.04 74.21,-15.17 22.29,-10.11 41.5,-24.03 57.61,-41.75 16.11,-17.7 28.4,-38.07 36.92,-61.06 8.5,-23.01 12.77,-47.63 12.77,-73.87l0 -12.42c0,-26.21 -4.14,-50.71 -12.41,-73.5 -8.29,-22.79 -20.25,-42.78 -35.89,-60.03z"/>
   <path class="fil3" d="M1889.55 3070.6c-17.3,18.32 -28.12,44.46 -32.79,78.08l0 -111.54 -52.45 0 0 368.51 66.26 0 0 -199.44c0,-36.78 9.87,-64.99 29.65,-84.54 19.77,-19.54 48.08,-29.32 84.9,-29.32l23.46 0 0 -59.38 -12.42 0c-47.39,0 -82.94,12.55 -106.62,37.63z"/>
   <path class="fil3" d="M2140.94 3100.63c17.26,-11.96 39,-17.96 65.23,-17.96 25.29,0 46.23,5.29 62.81,15.88 16.53,10.58 28.97,25.42 37.25,44.49 5.24,12.11 8.23,26.15 10.13,41.09l-223.72 0c2.13,-12.34 5.29,-23.88 9.66,-34.5 8.49,-20.71 21.39,-37.04 38.64,-49zm164.26 -50.03c-25.99,-17.27 -59.01,-25.93 -99.03,-25.93 -30.84,0 -57.64,5.42 -80.42,16.27 -22.76,10.79 -41.51,25.28 -56.24,43.45 -14.72,18.21 -25.63,38.54 -32.77,61.07 -7.15,22.55 -10.71,45.78 -10.71,69.7l0 12.42c0,23.51 3.56,46.5 10.71,69.04 7.14,22.54 18.05,42.92 32.77,61.08 14.73,18.17 33.82,32.79 57.29,43.84 23.46,11.03 51.28,16.53 83.51,16.53 28.99,0 54.97,-4.84 77.97,-14.5 23.01,-9.67 42.11,-23.67 57.3,-42.08 15.17,-18.42 25.28,-40.24 30.34,-65.58l-62.1 0c-3.68,17.04 -14.61,32 -32.78,44.88 -18.2,12.88 -41.75,19.33 -70.74,19.33 -27.62,0 -50.39,-6.09 -68.32,-18.3 -17.97,-12.2 -31.19,-28.75 -39.68,-49.71 -7.1,-17.44 -10.54,-37.18 -11.71,-58.32l291.54 0 0 -29.67c0,-30.83 -6.34,-59.78 -18.96,-86.96 -12.66,-27.12 -31.99,-49.32 -57.97,-66.56z"/>
   <path class="fil3" d="M2630.31 3026.1l-2.75 0c-30.82,0 -56.36,6.54 -76.59,19.66 -20.28,13.08 -35.34,32.2 -45.21,57.28 -2.91,7.41 -4.52,16.3 -6.57,24.65l0 -90.56 -52.46 0 0 368.52 66.28 0 0 -220.16c0,-29.91 8.95,-53.83 26.92,-71.78 17.93,-17.91 41.38,-26.92 70.36,-26.92 28.09,0 50.16,8.62 66.26,25.87 16.1,17.3 24.14,40.17 24.14,68.71l0 224.29 66.27 0 0 -210.49c0,-54.75 -11.16,-96.62 -33.49,-125.62 -22.32,-29 -56.69,-43.45 -103.17,-43.45z"/>
   <path class="fil3" d="M2944.59 3100.63c17.26,-11.96 39,-17.96 65.23,-17.96 25.3,0 46.24,5.29 62.81,15.88 16.54,10.58 28.98,25.42 37.26,44.49 5.23,12.11 8.22,26.15 10.13,41.09l-223.73 0c2.13,-12.34 5.29,-23.88 9.66,-34.5 8.5,-20.71 21.39,-37.04 38.64,-49zm164.26 -50.03c-25.99,-17.27 -59.01,-25.93 -99.03,-25.93 -30.83,0 -57.64,5.42 -80.41,16.27 -22.77,10.79 -41.52,25.28 -56.24,43.45 -14.73,18.21 -25.64,38.54 -32.78,61.07 -7.14,22.55 -10.7,45.78 -10.7,69.7l0 12.42c0,23.51 3.56,46.5 10.7,69.04 7.14,22.54 18.05,42.92 32.78,61.08 14.72,18.17 33.81,32.79 57.28,43.84 23.46,11.03 51.29,16.53 83.51,16.53 28.99,0 54.97,-4.84 77.97,-14.5 23.01,-9.67 42.11,-23.67 57.3,-42.08 15.18,-18.42 25.28,-40.24 30.34,-65.58l-62.09 0c-3.69,17.04 -14.62,32 -32.79,44.88 -18.2,12.88 -41.75,19.33 -70.74,19.33 -27.62,0 -50.38,-6.09 -68.32,-18.3 -17.97,-12.2 -31.18,-28.75 -39.68,-49.71 -7.1,-17.44 -10.54,-37.18 -11.71,-58.32l291.54 0 0 -29.67c0,-30.83 -6.33,-59.78 -18.95,-86.96 -12.67,-27.12 -31.99,-49.32 -57.98,-66.56z"/>
   <polygon class="fil3" points="3605.41,3353.2 3591.77,3353.2 3517.6,3049.56 3427.9,3049.56 3364.34,3353.2 3350.66,3353.2 3263.65,3037.13 3200.15,3037.13 3304.37,3405.66 3319.54,3405.66 3353.36,3405.66 3365.1,3405.66 3396.15,3405.66 3407.89,3405.66 3472.85,3099.22 3547.97,3405.66 3561.79,3405.66 3592.85,3405.66 3604.56,3405.66 3638.38,3405.66 3650.81,3405.66 3741.22,3037.13 3681.17,3037.13 "/>
   <path class="fil3" d="M3984.34 3325.25c-9.43,13.58 -21.29,23.26 -35.53,29 -14.27,5.75 -29.23,8.62 -44.86,8.62 -26.7,0 -47.16,-6.21 -61.43,-18.61 -14.27,-12.43 -21.39,-28.76 -21.39,-49.01 0,-20.25 7.12,-36.82 21.39,-49.71 14.27,-12.87 34.73,-19.32 61.43,-19.32l95.92 0 0 42.79c-0.93,23.95 -6.1,42.7 -15.53,56.24zm8.62 -278.81c-23.93,-8.95 -54.75,-13.46 -92.47,-13.46 -11.05,0 -22.54,0.14 -34.49,0.38 -11.99,0.21 -23.59,0.66 -34.88,1.38 -11.27,0.67 -21.95,1.51 -32.08,2.41l0 57.96c10.13,-0.92 22.09,-1.62 35.89,-2.09 13.79,-0.45 28.3,-0.92 43.48,-1.37 15.19,-0.45 29.89,-0.68 44.17,-0.68 25.29,0 44.52,6.42 57.63,19.29 13.12,12.92 19.66,32.01 19.66,57.3l0 8.99 -93.17 0c-31.74,0 -58.89,4.46 -81.43,13.45 -22.55,8.96 -39.68,22.21 -51.42,39.67 -11.72,17.5 -17.59,39.34 -17.59,65.58 0,25.3 5.41,46.92 16.22,64.87 10.79,17.93 26.23,31.63 46.23,41.05 20.02,9.44 43.82,14.16 71.43,14.16 25.76,0 47.71,-4.63 65.91,-13.79 18.18,-9.21 32.43,-22.66 42.78,-40.37 5.01,-8.54 8.97,-18.22 12.07,-28.75l0 73.25 52.46 0 0 -233.29c0,-34.49 -5.74,-61.85 -17.25,-82.11 -11.51,-20.24 -29.23,-34.83 -53.15,-43.83z"/>
   <path class="fil3" d="M4443.9 3292.83c-10.12,20.91 -24.39,37.38 -42.8,49.34 -18.39,11.96 -40,17.95 -64.87,17.95 -21.62,0 -41.87,-4.83 -60.73,-14.49 -18.86,-9.66 -34.06,-23.46 -45.56,-41.4 -11.49,-17.97 -17.25,-39.59 -17.25,-64.89l0 -31.74c0,-26.21 5.63,-48.66 16.93,-67.29 11.26,-18.62 26.32,-32.87 45.2,-42.78 18.84,-9.88 39.32,-14.83 61.4,-14.83 24.39,0 45.77,5.62 64.19,16.91 18.4,11.25 32.8,27.25 43.12,47.96 10.38,20.7 15.54,44.88 15.54,72.44 0,27.63 -5.07,51.87 -15.18,72.83zm33.12 -212.56c-15.64,-17.26 -34.28,-30.84 -55.89,-40.71 -21.62,-9.92 -45.53,-14.87 -71.78,-14.87 -28.06,0 -53.7,6.13 -76.92,18.3 -23.26,12.2 -42,30.95 -56.26,56.24 -0.26,0.46 -0.42,1 -0.68,1.45l0 -198.81 -66.26 0 0 503.81 52.45 0 0 -78.62c1.81,4.08 2.76,8.85 4.83,12.71 13.82,25.53 32.55,44.98 56.25,58.33 23.69,13.32 50.72,19.99 81.11,19.99 27.12,0 51.84,-5.04 74.17,-15.17 22.31,-10.11 41.52,-24.03 57.62,-41.75 16.11,-17.7 28.4,-38.07 36.93,-61.06 8.5,-23.01 12.76,-47.63 12.76,-73.87l0 -12.42c0,-26.21 -4.13,-50.71 -12.41,-73.5 -8.29,-22.79 -20.25,-42.78 -35.9,-60.03z"/>
   <polygon class="fil3" points="4541.54,2901.86 4541.54,2954.32 4592.61,2954.32 4592.61,3405.65 4658.86,3405.65 4658.86,2954.32 4658.86,2901.86 4592.61,2901.86 "/>
   <path class="fil3" d="M4841.12 3100.63c17.28,-11.96 39,-17.96 65.23,-17.96 25.29,0 46.24,5.29 62.8,15.88 16.57,10.58 28.98,25.42 37.27,44.49 5.23,12.11 8.21,26.15 10.12,41.09l-223.72 0c2.12,-12.34 5.29,-23.88 9.66,-34.5 8.5,-20.71 21.39,-37.04 38.64,-49zm164.26 -50.03c-26,-17.27 -59,-25.93 -99.03,-25.93 -30.84,0 -57.62,5.42 -80.42,16.27 -22.76,10.79 -41.52,25.28 -56.24,43.45 -14.71,18.21 -25.64,38.54 -32.77,61.07 -7.15,22.55 -10.68,45.78 -10.68,69.7l0 12.42c0,23.51 3.53,46.5 10.68,69.04 7.13,22.54 18.06,42.92 32.77,61.08 14.72,18.17 33.84,32.79 57.28,43.84 23.47,11.03 51.29,16.53 83.51,16.53 29,0 54.99,-4.84 77.97,-14.5 23.02,-9.67 42.11,-23.67 57.3,-42.08 15.18,-18.42 25.28,-40.24 30.37,-65.58l-62.12 0c-3.69,17.04 -14.62,32 -32.79,44.88 -18.17,12.88 -41.74,19.33 -70.74,19.33 -27.6,0 -50.38,-6.09 -68.32,-18.3 -17.93,-12.2 -31.17,-28.75 -39.68,-49.71 -7.11,-17.44 -10.53,-37.18 -11.71,-58.32l291.56 0 0 -29.67c0,-30.83 -6.33,-59.78 -18.98,-86.96 -12.66,-27.12 -31.98,-49.32 -57.97,-66.56z"/>
   <path class="fil3" d="M5389.1 3224.51c-23.93,-17.71 -55.68,-28.68 -95.24,-32.79l-40.04 -4.12c-21.63,-2.3 -37.16,-7.63 -46.58,-15.88 -9.43,-8.29 -14.15,-19.33 -14.15,-33.13 0,-16.12 6.68,-29.45 20.03,-40.03 13.33,-10.59 32.87,-15.88 58.66,-15.88 25.75,0 45.2,5.17 58.32,15.55 13.1,10.32 19.89,22.87 20.34,37.58l62.12 0c-0.94,-36.33 -14.27,-63.71 -40.03,-82.12 -25.77,-18.38 -59.36,-27.58 -100.75,-27.58 -27.63,0 -51.99,4.45 -73.16,13.45 -21.17,8.95 -37.72,21.83 -49.69,38.62 -11.98,16.8 -17.95,36.91 -17.95,60.42 0,31.29 11.05,55.55 33.14,72.79 22.09,17.25 50.59,27.75 85.58,31.41l40.01 4.13c25.78,2.73 44.4,8.41 55.9,16.92 11.49,8.48 17.25,20.36 17.25,35.53 0,17.03 -7.82,31.41 -23.47,43.13 -15.64,11.75 -38.19,17.62 -67.62,17.62 -32.69,0 -55.8,-6.34 -69.36,-19 -13.59,-12.62 -20.84,-26.08 -21.77,-40.36l-62.09 0c0.92,35.9 14.6,64.19 41.06,84.91 26.45,20.7 63.83,31.04 112.16,31.04 29.89,0 56.35,-4.96 79.35,-14.83 23.02,-9.87 41.06,-23.71 54.19,-41.42 13.11,-17.71 19.66,-38.08 19.66,-61.07 0,-32.21 -11.96,-57.17 -35.87,-74.87z"/>
   <path class="fil3" d="M5468.03 2911.4l13.75 0 0 92.89 -13.75 0 0 -92.89zm-31.15 -9.54l76.06 0 0 12.36 -76.06 0 0 -12.36z"/>
   <polygon class="fil3" points="5531.46,3004.29 5531.46,2901.86 5549.7,2901.86 5580,2970.19 5582.26,2970.19 5612.42,2901.86 5630.81,2901.86 5630.81,3004.29 5617.05,3004.29 5617.05,2916.87 5618.04,2917.15 5588.99,2983.1 5572.15,2983.1 5542.95,2917.15 5544.08,2916.87 5544.08,3004.29 "/>
  </g>
 </g>
</svg>
